<?xml version="1.0" standalone="no"?>
<svg xmlns:xlink="http://www.w3.org/1999/xlink" id="wave" style="transform:rotate(0deg); transition: 0.3s" viewBox="0 0 1440 490" version="1.1" xmlns="http://www.w3.org/2000/svg"><defs><linearGradient id="sw-gradient-0" x1="0" x2="0" y1="1" y2="0"><stop stop-color="rgba(243, 106, 62, 1)" offset="0%"/><stop stop-color="rgba(255, 179, 11, 1)" offset="100%"/></linearGradient></defs><path style="transform:translate(0, 0px); opacity:1" fill="url(#sw-gradient-0)" d="M0,147L40,163.3C80,180,160,212,240,245C320,278,400,310,480,326.7C560,343,640,343,720,318.5C800,294,880,245,960,261.3C1040,278,1120,359,1200,375.7C1280,392,1360,343,1440,277.7C1520,212,1600,131,1680,138.8C1760,147,1840,245,1920,294C2000,343,2080,343,2160,359.3C2240,376,2320,408,2400,367.5C2480,327,2560,212,2640,147C2720,82,2800,65,2880,114.3C2960,163,3040,278,3120,302.2C3200,327,3280,261,3360,204.2C3440,147,3520,98,3600,73.5C3680,49,3760,49,3840,65.3C3920,82,4000,114,4080,122.5C4160,131,4240,114,4320,106.2C4400,98,4480,98,4560,138.8C4640,180,4720,261,4800,245C4880,229,4960,114,5040,122.5C5120,131,5200,261,5280,269.5C5360,278,5440,163,5520,130.7C5600,98,5680,147,5720,171.5L5760,196L5760,490L5720,490C5680,490,5600,490,5520,490C5440,490,5360,490,5280,490C5200,490,5120,490,5040,490C4960,490,4880,490,4800,490C4720,490,4640,490,4560,490C4480,490,4400,490,4320,490C4240,490,4160,490,4080,490C4000,490,3920,490,3840,490C3760,490,3680,490,3600,490C3520,490,3440,490,3360,490C3280,490,3200,490,3120,490C3040,490,2960,490,2880,490C2800,490,2720,490,2640,490C2560,490,2480,490,2400,490C2320,490,2240,490,2160,490C2080,490,2000,490,1920,490C1840,490,1760,490,1680,490C1600,490,1520,490,1440,490C1360,490,1280,490,1200,490C1120,490,1040,490,960,490C880,490,800,490,720,490C640,490,560,490,480,490C400,490,320,490,240,490C160,490,80,490,40,490L0,490Z"/><defs><linearGradient id="sw-gradient-1" x1="0" x2="0" y1="1" y2="0"><stop stop-color="rgba(243, 106, 62, 1)" offset="0%"/><stop stop-color="rgba(255, 179, 11, 1)" offset="100%"/></linearGradient></defs><path style="transform:translate(0, 50px); opacity:0.9" fill="url(#sw-gradient-1)" d="M0,98L40,122.5C80,147,160,196,240,228.7C320,261,400,278,480,261.3C560,245,640,196,720,171.5C800,147,880,147,960,171.5C1040,196,1120,245,1200,220.5C1280,196,1360,98,1440,49C1520,0,1600,0,1680,40.8C1760,82,1840,163,1920,171.5C2000,180,2080,114,2160,122.5C2240,131,2320,212,2400,212.3C2480,212,2560,131,2640,81.7C2720,33,2800,16,2880,40.8C2960,65,3040,131,3120,138.8C3200,147,3280,98,3360,138.8C3440,180,3520,310,3600,359.3C3680,408,3760,376,3840,326.7C3920,278,4000,212,4080,155.2C4160,98,4240,49,4320,49C4400,49,4480,98,4560,106.2C4640,114,4720,82,4800,98C4880,114,4960,180,5040,212.3C5120,245,5200,245,5280,277.7C5360,310,5440,376,5520,334.8C5600,294,5680,147,5720,73.5L5760,0L5760,490L5720,490C5680,490,5600,490,5520,490C5440,490,5360,490,5280,490C5200,490,5120,490,5040,490C4960,490,4880,490,4800,490C4720,490,4640,490,4560,490C4480,490,4400,490,4320,490C4240,490,4160,490,4080,490C4000,490,3920,490,3840,490C3760,490,3680,490,3600,490C3520,490,3440,490,3360,490C3280,490,3200,490,3120,490C3040,490,2960,490,2880,490C2800,490,2720,490,2640,490C2560,490,2480,490,2400,490C2320,490,2240,490,2160,490C2080,490,2000,490,1920,490C1840,490,1760,490,1680,490C1600,490,1520,490,1440,490C1360,490,1280,490,1200,490C1120,490,1040,490,960,490C880,490,800,490,720,490C640,490,560,490,480,490C400,490,320,490,240,490C160,490,80,490,40,490L0,490Z"/><defs><linearGradient id="sw-gradient-2" x1="0" x2="0" y1="1" y2="0"><stop stop-color="rgba(243, 106, 62, 1)" offset="0%"/><stop stop-color="rgba(255, 179, 11, 1)" offset="100%"/></linearGradient></defs><path style="transform:translate(0, 100px); opacity:0.8" fill="url(#sw-gradient-2)" d="M0,0L40,16.3C80,33,160,65,240,89.8C320,114,400,131,480,147C560,163,640,180,720,212.3C800,245,880,294,960,302.2C1040,310,1120,278,1200,253.2C1280,229,1360,212,1440,212.3C1520,212,1600,229,1680,212.3C1760,196,1840,147,1920,147C2000,147,2080,196,2160,196C2240,196,2320,147,2400,122.5C2480,98,2560,98,2640,147C2720,196,2800,294,2880,294C2960,294,3040,196,3120,171.5C3200,147,3280,196,3360,204.2C3440,212,3520,180,3600,138.8C3680,98,3760,49,3840,81.7C3920,114,4000,229,4080,285.8C4160,343,4240,343,4320,318.5C4400,294,4480,245,4560,187.8C4640,131,4720,65,4800,98C4880,131,4960,261,5040,294C5120,327,5200,261,5280,236.8C5360,212,5440,229,5520,261.3C5600,294,5680,343,5720,367.5L5760,392L5760,490L5720,490C5680,490,5600,490,5520,490C5440,490,5360,490,5280,490C5200,490,5120,490,5040,490C4960,490,4880,490,4800,490C4720,490,4640,490,4560,490C4480,490,4400,490,4320,490C4240,490,4160,490,4080,490C4000,490,3920,490,3840,490C3760,490,3680,490,3600,490C3520,490,3440,490,3360,490C3280,490,3200,490,3120,490C3040,490,2960,490,2880,490C2800,490,2720,490,2640,490C2560,490,2480,490,2400,490C2320,490,2240,490,2160,490C2080,490,2000,490,1920,490C1840,490,1760,490,1680,490C1600,490,1520,490,1440,490C1360,490,1280,490,1200,490C1120,490,1040,490,960,490C880,490,800,490,720,490C640,490,560,490,480,490C400,490,320,490,240,490C160,490,80,490,40,490L0,490Z"/><defs><linearGradient id="sw-gradient-3" x1="0" x2="0" y1="1" y2="0"><stop stop-color="rgba(243, 106, 62, 1)" offset="0%"/><stop stop-color="rgba(255, 179, 11, 1)" offset="100%"/></linearGradient></defs><path style="transform:translate(0, 150px); opacity:0.7" fill="url(#sw-gradient-3)" d="M0,392L40,383.8C80,376,160,359,240,334.8C320,310,400,278,480,245C560,212,640,180,720,187.8C800,196,880,245,960,228.7C1040,212,1120,131,1200,89.8C1280,49,1360,49,1440,57.2C1520,65,1600,82,1680,98C1760,114,1840,131,1920,163.3C2000,196,2080,245,2160,294C2240,343,2320,392,2400,375.7C2480,359,2560,278,2640,204.2C2720,131,2800,65,2880,106.2C2960,147,3040,294,3120,294C3200,294,3280,147,3360,73.5C3440,0,3520,0,3600,40.8C3680,82,3760,163,3840,187.8C3920,212,4000,180,4080,138.8C4160,98,4240,49,4320,57.2C4400,65,4480,131,4560,163.3C4640,196,4720,196,4800,236.8C4880,278,4960,359,5040,383.8C5120,408,5200,376,5280,359.3C5360,343,5440,343,5520,302.2C5600,261,5680,180,5720,138.8L5760,98L5760,490L5720,490C5680,490,5600,490,5520,490C5440,490,5360,490,5280,490C5200,490,5120,490,5040,490C4960,490,4880,490,4800,490C4720,490,4640,490,4560,490C4480,490,4400,490,4320,490C4240,490,4160,490,4080,490C4000,490,3920,490,3840,490C3760,490,3680,490,3600,490C3520,490,3440,490,3360,490C3280,490,3200,490,3120,490C3040,490,2960,490,2880,490C2800,490,2720,490,2640,490C2560,490,2480,490,2400,490C2320,490,2240,490,2160,490C2080,490,2000,490,1920,490C1840,490,1760,490,1680,490C1600,490,1520,490,1440,490C1360,490,1280,490,1200,490C1120,490,1040,490,960,490C880,490,800,490,720,490C640,490,560,490,480,490C400,490,320,490,240,490C160,490,80,490,40,490L0,490Z"/></svg>