<?xml version="1.0" standalone="no"?>
<svg xmlns:xlink="http://www.w3.org/1999/xlink" id="wave" style="transform:rotate(0deg); transition: 0.3s" viewBox="0 0 1440 490" version="1.1" xmlns="http://www.w3.org/2000/svg"><defs><linearGradient id="sw-gradient-0" x1="0" x2="0" y1="1" y2="0"><stop stop-color="rgba(243, 62, 62, 1)" offset="0%"/><stop stop-color="rgba(250.873, 195.245, 159.429, 1)" offset="100%"/></linearGradient></defs><path style="transform:translate(0, 0px); opacity:1" fill="url(#sw-gradient-0)" d="M0,441L60,392C120,343,240,245,360,212.3C480,180,600,212,720,261.3C840,310,960,376,1080,351.2C1200,327,1320,212,1440,163.3C1560,114,1680,131,1800,179.7C1920,229,2040,310,2160,310.3C2280,310,2400,229,2520,187.8C2640,147,2760,147,2880,163.3C3000,180,3120,212,3240,261.3C3360,310,3480,376,3600,383.8C3720,392,3840,343,3960,334.8C4080,327,4200,359,4320,310.3C4440,261,4560,131,4680,138.8C4800,147,4920,294,5040,359.3C5160,425,5280,408,5400,334.8C5520,261,5640,131,5760,81.7C5880,33,6000,65,6120,73.5C6240,82,6360,65,6480,57.2C6600,49,6720,49,6840,81.7C6960,114,7080,180,7200,236.8C7320,294,7440,343,7560,310.3C7680,278,7800,163,7920,163.3C8040,163,8160,278,8280,277.7C8400,278,8520,163,8580,106.2L8640,49L8640,490L8580,490C8520,490,8400,490,8280,490C8160,490,8040,490,7920,490C7800,490,7680,490,7560,490C7440,490,7320,490,7200,490C7080,490,6960,490,6840,490C6720,490,6600,490,6480,490C6360,490,6240,490,6120,490C6000,490,5880,490,5760,490C5640,490,5520,490,5400,490C5280,490,5160,490,5040,490C4920,490,4800,490,4680,490C4560,490,4440,490,4320,490C4200,490,4080,490,3960,490C3840,490,3720,490,3600,490C3480,490,3360,490,3240,490C3120,490,3000,490,2880,490C2760,490,2640,490,2520,490C2400,490,2280,490,2160,490C2040,490,1920,490,1800,490C1680,490,1560,490,1440,490C1320,490,1200,490,1080,490C960,490,840,490,720,490C600,490,480,490,360,490C240,490,120,490,60,490L0,490Z"/><defs><linearGradient id="sw-gradient-1" x1="0" x2="0" y1="1" y2="0"><stop stop-color="rgba(248.597, 38.421, 0, 1)" offset="0%"/><stop stop-color="rgba(255, 179, 11, 1)" offset="100%"/></linearGradient></defs><path style="transform:translate(0, 50px); opacity:0.9" fill="url(#sw-gradient-1)" d="M0,441L60,400.2C120,359,240,278,360,253.2C480,229,600,261,720,302.2C840,343,960,392,1080,351.2C1200,310,1320,180,1440,114.3C1560,49,1680,49,1800,89.8C1920,131,2040,212,2160,253.2C2280,294,2400,294,2520,294C2640,294,2760,294,2880,310.3C3000,327,3120,359,3240,351.2C3360,343,3480,294,3600,228.7C3720,163,3840,82,3960,49C4080,16,4200,33,4320,81.7C4440,131,4560,212,4680,204.2C4800,196,4920,98,5040,106.2C5160,114,5280,229,5400,261.3C5520,294,5640,245,5760,212.3C5880,180,6000,163,6120,163.3C6240,163,6360,180,6480,155.2C6600,131,6720,65,6840,98C6960,131,7080,261,7200,285.8C7320,310,7440,229,7560,196C7680,163,7800,180,7920,228.7C8040,278,8160,359,8280,351.2C8400,343,8520,245,8580,196L8640,147L8640,490L8580,490C8520,490,8400,490,8280,490C8160,490,8040,490,7920,490C7800,490,7680,490,7560,490C7440,490,7320,490,7200,490C7080,490,6960,490,6840,490C6720,490,6600,490,6480,490C6360,490,6240,490,6120,490C6000,490,5880,490,5760,490C5640,490,5520,490,5400,490C5280,490,5160,490,5040,490C4920,490,4800,490,4680,490C4560,490,4440,490,4320,490C4200,490,4080,490,3960,490C3840,490,3720,490,3600,490C3480,490,3360,490,3240,490C3120,490,3000,490,2880,490C2760,490,2640,490,2520,490C2400,490,2280,490,2160,490C2040,490,1920,490,1800,490C1680,490,1560,490,1440,490C1320,490,1200,490,1080,490C960,490,840,490,720,490C600,490,480,490,360,490C240,490,120,490,60,490L0,490Z"/><defs><linearGradient id="sw-gradient-2" x1="0" x2="0" y1="1" y2="0"><stop stop-color="rgba(248.597, 0, 0, 1)" offset="0%"/><stop stop-color="rgba(255, 134.288, 67.034, 1)" offset="100%"/></linearGradient></defs><path style="transform:translate(0, 100px); opacity:0.8" fill="url(#sw-gradient-2)" d="M0,147L60,187.8C120,229,240,310,360,359.3C480,408,600,425,720,392C840,359,960,278,1080,204.2C1200,131,1320,65,1440,98C1560,131,1680,261,1800,310.3C1920,359,2040,327,2160,277.7C2280,229,2400,163,2520,114.3C2640,65,2760,33,2880,40.8C3000,49,3120,98,3240,171.5C3360,245,3480,343,3600,326.7C3720,310,3840,180,3960,155.2C4080,131,4200,212,4320,228.7C4440,245,4560,196,4680,163.3C4800,131,4920,114,5040,106.2C5160,98,5280,98,5400,138.8C5520,180,5640,261,5760,302.2C5880,343,6000,343,6120,285.8C6240,229,6360,114,6480,98C6600,82,6720,163,6840,236.8C6960,310,7080,376,7200,383.8C7320,392,7440,343,7560,343C7680,343,7800,392,7920,400.2C8040,408,8160,376,8280,351.2C8400,327,8520,310,8580,302.2L8640,294L8640,490L8580,490C8520,490,8400,490,8280,490C8160,490,8040,490,7920,490C7800,490,7680,490,7560,490C7440,490,7320,490,7200,490C7080,490,6960,490,6840,490C6720,490,6600,490,6480,490C6360,490,6240,490,6120,490C6000,490,5880,490,5760,490C5640,490,5520,490,5400,490C5280,490,5160,490,5040,490C4920,490,4800,490,4680,490C4560,490,4440,490,4320,490C4200,490,4080,490,3960,490C3840,490,3720,490,3600,490C3480,490,3360,490,3240,490C3120,490,3000,490,2880,490C2760,490,2640,490,2520,490C2400,490,2280,490,2160,490C2040,490,1920,490,1800,490C1680,490,1560,490,1440,490C1320,490,1200,490,1080,490C960,490,840,490,720,490C600,490,480,490,360,490C240,490,120,490,60,490L0,490Z"/></svg>